<svg width="1000" height="600" xmlns="http://www.w3.org/2000/svg">
<rect x="0.0" y="0.0" width="22.6" height="600.0" fill="#bdbdbd" stroke="#222" stroke-width="2"/><rect x="22.6" y="0.0" width="10.2" height="600.0" fill="#ffc107" stroke="#222" stroke-width="2"/><rect x="32.8" y="0.0" width="24.2" height="600.0" fill="#ffc107" stroke="#222" stroke-width="2"/><rect x="57.0" y="0.0" width="22.6" height="600.0" fill="#ffc107" stroke="#222" stroke-width="2"/><rect x="79.6" y="0.0" width="56.5" height="600.0" fill="#ffc107" stroke="#222" stroke-width="2"/><rect x="136.1" y="0.0" width="14.1" height="600.0" fill="#ffc107" stroke="#222" stroke-width="2"/><rect x="150.2" y="0.0" width="45.9" height="600.0" fill="#ffc107" stroke="#222" stroke-width="2"/><rect x="196.1" y="0.0" width="12.6" height="600.0" fill="#ffc107" stroke="#222" stroke-width="2"/><rect x="208.7" y="0.0" width="42.3" height="600.0" fill="#ffc107" stroke="#222" stroke-width="2"/><rect x="251.0" y="0.0" width="10.4" height="600.0" fill="#ffc107" stroke="#222" stroke-width="2"/><rect x="261.4" y="0.0" width="19.4" height="600.0" fill="#ffc107" stroke="#222" stroke-width="2"/><rect x="280.7" y="0.0" width="12.8" height="600.0" fill="#ffc107" stroke="#222" stroke-width="2"/><rect x="293.6" y="0.0" width="24.0" height="600.0" fill="#ffc107" stroke="#222" stroke-width="2"/><rect x="317.6" y="0.0" width="21.8" height="600.0" fill="#ffc107" stroke="#222" stroke-width="2"/><rect x="339.4" y="0.0" width="35.6" height="600.0" fill="#ffc107" stroke="#222" stroke-width="2"/><rect x="375.0" y="0.0" width="22.6" height="600.0" fill="#bdbdbd" stroke="#222" stroke-width="2"/><rect x="397.6" y="0.0" width="69.7" height="600.0" fill="#ffc107" stroke="#222" stroke-width="2"/><text x="401.6" y="16.0" font-size="12" fill="#111">/target/debug/deps/libratatui-ba73eae95c0525b2.rlib</text><rect x="467.3" y="0.0" width="18.8" height="600.0" fill="#ffc107" stroke="#222" stroke-width="2"/><rect x="486.1" y="0.0" width="21.5" height="600.0" fill="#ffc107" stroke="#222" stroke-width="2"/><rect x="507.7" y="0.0" width="15.1" height="600.0" fill="#ffc107" stroke="#222" stroke-width="2"/><rect x="522.8" y="0.0" width="13.1" height="600.0" fill="#ffc107" stroke="#222" stroke-width="2"/><rect x="535.9" y="0.0" width="20.0" height="600.0" fill="#bdbdbd" stroke="#222" stroke-width="2"/><rect x="555.9" y="0.0" width="20.0" height="600.0" fill="#bdbdbd" stroke="#222" stroke-width="2"/><rect x="575.9" y="0.0" width="19.0" height="600.0" fill="#bdbdbd" stroke="#222" stroke-width="2"/><rect x="594.9" y="0.0" width="19.0" height="600.0" fill="#bdbdbd" stroke="#222" stroke-width="2"/><rect x="613.9" y="0.0" width="19.2" height="600.0" fill="#bdbdbd" stroke="#222" stroke-width="2"/><rect x="633.0" y="0.0" width="19.2" height="600.0" fill="#bdbdbd" stroke="#222" stroke-width="2"/><rect x="652.2" y="0.0" width="19.9" height="600.0" fill="#bdbdbd" stroke="#222" stroke-width="2"/><rect x="672.1" y="0.0" width="19.9" height="600.0" fill="#bdbdbd" stroke="#222" stroke-width="2"/><rect x="692.0" y="0.0" width="19.9" height="600.0" fill="#bdbdbd" stroke="#222" stroke-width="2"/><rect x="711.9" y="0.0" width="19.9" height="600.0" fill="#bdbdbd" stroke="#222" stroke-width="2"/><rect x="731.9" y="0.0" width="19.6" height="600.0" fill="#bdbdbd" stroke="#222" stroke-width="2"/><rect x="751.5" y="0.0" width="19.6" height="600.0" fill="#bdbdbd" stroke="#222" stroke-width="2"/><rect x="771.1" y="0.0" width="19.6" height="600.0" fill="#bdbdbd" stroke="#222" stroke-width="2"/><rect x="790.7" y="0.0" width="19.6" height="600.0" fill="#bdbdbd" stroke="#222" stroke-width="2"/><rect x="810.3" y="0.0" width="189.7" height="600.0" fill="#cccccc" stroke="#222" stroke-width="2"/><text x="814.3" y="16.0" font-size="12" fill="#111">Прочее</text></svg>
